<svg xmlns="http://www.w3.org/2000/svg" width="24" height="24" viewBox="0 0 24 24" fill="none" stroke="currentColor" stroke-width="2" stroke-linecap="round" stroke-linejoin="round" class="lucide lucide-download w-4 h-4 mr-2" data-fg-c48i236="131.625:186.22:/src/app/pages/StudentsPage.tsx:1423:13:58438:37:e:Download::::::EGDb"><path d="M21 15v4a2 2 0 0 1-2 2H5a2 2 0 0 1-2-2v-4"></path><polyline points="7 10 12 15 17 10"></polyline><line x1="12" x2="12" y1="15" y2="3"></line>
<path d="M21 15v4a2 2 0 0 1-2 2H5a2 2 0 0 1-2-2v-4"></path>
<polyline points="7 10 12 15 17 10"></polyline>
<line x1="12" x2="12" y1="15" y2="3"></line>
</svg>
